<?xml version="1.0" encoding="iso-8859-1"?>
<!-- Generator: Adobe Illustrator 16.0.0, SVG Export Plug-In . SVG Version: 6.00 Build 0)  -->
<!DOCTYPE svg PUBLIC "-//W3C//DTD SVG 1.1//EN" "http://www.w3.org/Graphics/SVG/1.1/DTD/svg11.dtd">
<svg version="1.1" id="Capa_1" xmlns="http://www.w3.org/2000/svg" xmlns:xlink="http://www.w3.org/1999/xlink" x="0px" y="0px"
	 width="177.288px" height="177.288px" viewBox="0 0 177.288 177.288" style="enable-background:new 0 0 177.288 177.288;"
	 xml:space="preserve">
<g>
	<path d="M168.569,160.962c-29.637,25.062-57.63,16.609-73.122,5.367c-11.712,7.95-23.014,10.959-33.224,10.959
		c-18.048,0-32.684-9.363-40.104-17.295l17.625-16.609c2.87,2.967,16.083,14.895,34.797,6.892
		c-1.561-3.168-2.512-6.679-2.512-10.462c0-13.157,10.672-23.826,23.838-23.826c13.146,0,23.832,10.669,23.832,23.826
		c0,3.996-1.076,7.695-2.808,10.988c8.482,3.481,21.084,4.326,36.05-8.322L168.569,160.962z M139.761,79.621
		c13.146,0,23.82-10.663,23.82-23.82c0-13.16-10.675-23.823-23.82-23.823c-13.157,0-23.839,10.663-23.839,23.823
		C115.922,68.958,126.604,79.621,139.761,79.621z M8.719,54.548C8.719,24.423,28.088,0,51.982,0
		c23.886,0,43.252,24.423,43.252,54.548c0,30.121-19.366,54.541-43.252,54.541C28.088,109.089,8.719,84.669,8.719,54.548z
		 M26.9,55.801c0,13.157,10.678,23.82,23.823,23.82c13.172,0,23.835-10.663,23.835-23.82c0-13.16-10.669-23.823-23.835-23.823
		C37.572,31.978,26.9,42.635,26.9,55.801z"/>
</g>
<g>
</g>
<g>
</g>
<g>
</g>
<g>
</g>
<g>
</g>
<g>
</g>
<g>
</g>
<g>
</g>
<g>
</g>
<g>
</g>
<g>
</g>
<g>
</g>
<g>
</g>
<g>
</g>
<g>
</g>
</svg>
